<svg width="82" height="23" viewBox="0 0 82 23" fill="none" xmlns="http://www.w3.org/2000/svg">
<path d="M73.8034 11.3298C74.837 11.3298 75.6719 10.982 76.3079 10.2863C76.9639 9.59058 77.2918 8.69612 77.2918 7.6029C77.2918 6.50967 76.9639 5.61521 76.3079 4.91952C75.6719 4.22383 74.837 3.87599 73.8034 3.87599H69.4206V11.3298H73.8034ZM73.9525 0C75.483 0 76.8446 0.327968 78.0372 0.983904C79.2298 1.61996 80.1541 2.51442 80.81 3.66728C81.4858 4.82014 81.8238 6.13201 81.8238 7.6029C81.8238 9.07378 81.4858 10.3857 80.81 11.5385C80.1541 12.6914 79.2298 13.5958 78.0372 14.2517C76.8446 14.8878 75.483 15.2058 73.9525 15.2058H69.4206V22.6H64.8887V0H73.9525Z" fill="url(#paint0_linear_1479_3388)"/>
<path d="M42.5334 7.57308V22.6H38.0015V0H43.1297L50.345 11.5385L57.5603 0H62.6885V22.6H58.1566V7.57308L52.1339 17.3525H48.5561L42.5334 7.57308Z" fill="url(#paint1_linear_1479_3388)"/>
<path d="M35.8017 3.87599H24.9191V9.03403H34.2215V12.91H24.9191V18.724H35.8017V22.6H20.3872V0H35.8017V3.87599Z" fill="url(#paint2_linear_1479_3388)"/>
<path d="M18.1873 22.6H13.6554V12.9398H4.53192V22.6H0V0H4.53192V9.06385H13.6554V0H18.1873V22.6Z" fill="url(#paint3_linear_1479_3388)"/>
<defs>
<linearGradient id="paint0_linear_1479_3388" x1="40.8105" y1="4.09968" x2="40.8105" y2="22.6" gradientUnits="userSpaceOnUse">
<stop stop-color="#93E729"/>
<stop offset="1" stop-color="#B5E07E"/>
</linearGradient>
<linearGradient id="paint1_linear_1479_3388" x1="41.0691" y1="4.09968" x2="41.0691" y2="22.6" gradientUnits="userSpaceOnUse">
<stop stop-color="#93E729"/>
<stop offset="1" stop-color="#B5E07E"/>
</linearGradient>
<linearGradient id="paint2_linear_1479_3388" x1="40.5924" y1="4.09968" x2="40.5924" y2="22.6" gradientUnits="userSpaceOnUse">
<stop stop-color="#93E729"/>
<stop offset="1" stop-color="#B5E07E"/>
</linearGradient>
<linearGradient id="paint3_linear_1479_3388" x1="40.4129" y1="4.09968" x2="40.4129" y2="22.6" gradientUnits="userSpaceOnUse">
<stop stop-color="#93E729"/>
<stop offset="1" stop-color="#B5E07E"/>
</linearGradient>
</defs>
</svg>
